<svg width="40" height="40" viewBox="0 0 40 40" fill="none" xmlns="http://www.w3.org/2000/svg">
<path d="M13 9.74327C12.5 16.7433 0 21.7433 0 20.7433L9 5.7594L11.5 5.24327C11.5 5.24327 13.5 2.74327 13 9.74327Z" fill="url(#paint0_linear_83_3104)"/>
<path d="M20 0C31.0457 7.60215e-05 39.9999 8.95434 40 20C40 31.0457 31.0457 39.9999 20 40H12.0137C14.5727 30.7827 19.2729 26.4948 29.2129 24.166C29.6282 24.0687 29.6281 23.4324 29.2129 23.335C18.7271 20.8777 14.0703 16.2389 11.6074 5.92969C11.5087 5.51646 10.876 5.51645 10.7773 5.92969C8.93177 13.6622 5.85066 18.2039 0 21.0283V2.32324C0 1.0404 1.0404 0 2.32324 0H20Z" fill="#F03000"/>
<path d="M20 0C31.0457 7.60215e-05 39.9999 8.95434 40 20C40 31.0457 31.0457 39.9999 20 40H12.0137C14.5727 30.7827 19.2729 26.4948 29.2129 24.166C29.6282 24.0687 29.6281 23.4324 29.2129 23.335C18.7271 20.8777 14.0703 16.2389 11.6074 5.92969C11.5087 5.51646 10.876 5.51645 10.7773 5.92969C8.93177 13.6622 5.85066 18.2039 0 21.0283V2.32324C0 1.0404 1.0404 0 2.32324 0H20Z" fill="url(#paint1_radial_83_3104)" fill-opacity="0.3"/>
<defs>
<linearGradient id="paint0_linear_83_3104" x1="21" y1="24" x2="5" y2="8.5" gradientUnits="userSpaceOnUse">
<stop stop-color="#FF3705"/>
<stop offset="1" stop-color="#FF896B"/>
</linearGradient>
<radialGradient id="paint1_radial_83_3104" cx="0" cy="0" r="1" gradientUnits="userSpaceOnUse" gradientTransform="translate(4 4.5) rotate(48.0587) scale(46.3816 54.7952)">
<stop offset="0.539555" stop-color="white" stop-opacity="0"/>
<stop offset="1" stop-color="white"/>
</radialGradient>
</defs>
</svg>
