<svg width="143" height="48" viewBox="0 0 143 48" fill="none" xmlns="http://www.w3.org/2000/svg">
<path d="M13 13.7433C12.5 20.7433 0 25.7433 0 24.7433L9 9.7594L11.5 9.24327C11.5 9.24327 13.5 6.74327 13 13.7433Z" fill="url(#paint0_linear_83_3173)"/>
<path d="M20 4C31.0457 4.00008 39.9999 12.9543 40 24C40 35.0457 31.0457 43.9999 20 44H12.0137C14.5727 34.7827 19.2729 30.4948 29.2129 28.166C29.6282 28.0687 29.6281 27.4324 29.2129 27.335C18.7271 24.8777 14.0703 20.2389 11.6074 9.92969C11.5087 9.51646 10.876 9.51645 10.7773 9.92969C8.93177 17.6622 5.85066 22.2039 0 25.0283V6.32324C0 5.0404 1.0404 4 2.32324 4H20Z" fill="#F03000"/>
<path d="M20 4C31.0457 4.00008 39.9999 12.9543 40 24C40 35.0457 31.0457 43.9999 20 44H12.0137C14.5727 34.7827 19.2729 30.4948 29.2129 28.166C29.6282 28.0687 29.6281 27.4324 29.2129 27.335C18.7271 24.8777 14.0703 20.2389 11.6074 9.92969C11.5087 9.51646 10.876 9.51645 10.7773 9.92969C8.93177 17.6622 5.85066 22.2039 0 25.0283V6.32324C0 5.0404 1.0404 4 2.32324 4H20Z" fill="url(#paint1_radial_83_3173)" fill-opacity="0.3"/>
<path d="M59.409 34H51.579V14.02H59.139C64.998 14.02 69.075 18.124 69.075 24.064C69.075 29.896 65.106 34 59.409 34ZM58.707 18.07H55.953V29.95H58.977C62.433 29.95 64.458 27.763 64.458 24.064C64.458 20.284 62.325 18.07 58.707 18.07ZM75.953 34.351C73.091 34.351 71.309 32.677 71.309 30.031C71.309 27.547 73.064 26.008 76.304 25.765L80.084 25.468V25.252C80.084 23.929 79.274 23.227 77.789 23.227C76.034 23.227 75.089 23.902 75.089 25.117H71.633C71.633 22.066 74.144 20.068 78.005 20.068C81.92 20.068 84.134 22.255 84.134 26.116V34H80.462L80.192 32.218C79.76 33.46 77.978 34.351 75.953 34.351ZM77.411 31.273C79.004 31.273 80.111 30.49 80.111 28.951V28.222L78.005 28.411C76.196 28.573 75.548 28.978 75.548 29.842C75.548 30.814 76.142 31.273 77.411 31.273ZM91.5443 34H87.3863V13.642H91.5443V25.36L95.9183 20.5H101.129L96.0533 25.846L100.967 34H96.1613L93.1373 28.951L91.5443 30.625V34ZM101.693 27.223C101.693 22.957 104.825 20.095 109.145 20.095C113.438 20.095 116.57 22.957 116.57 27.223C116.57 31.489 113.438 34.324 109.145 34.324C104.825 34.324 101.693 31.489 101.693 27.223ZM105.878 27.196C105.878 29.248 107.201 30.598 109.145 30.598C111.062 30.598 112.385 29.248 112.385 27.196C112.385 25.171 111.062 23.821 109.145 23.821C107.201 23.821 105.878 25.171 105.878 27.196ZM128.538 20.5V24.415H127.215C124.839 24.415 123.408 25.468 123.408 28.141V34H119.25V20.527H123.165L123.381 22.525C123.948 21.202 125.136 20.311 126.945 20.311C127.431 20.311 127.971 20.365 128.538 20.5ZM134.461 34.351C131.599 34.351 129.817 32.677 129.817 30.031C129.817 27.547 131.572 26.008 134.812 25.765L138.592 25.468V25.252C138.592 23.929 137.782 23.227 136.297 23.227C134.542 23.227 133.597 23.902 133.597 25.117H130.141C130.141 22.066 132.652 20.068 136.513 20.068C140.428 20.068 142.642 22.255 142.642 26.116V34H138.97L138.7 32.218C138.268 33.46 136.486 34.351 134.461 34.351ZM135.919 31.273C137.512 31.273 138.619 30.49 138.619 28.951V28.222L136.513 28.411C134.704 28.573 134.056 28.978 134.056 29.842C134.056 30.814 134.65 31.273 135.919 31.273Z" fill="black"/>
<defs>
<linearGradient id="paint0_linear_83_3173" x1="21" y1="28" x2="5" y2="12.5" gradientUnits="userSpaceOnUse">
<stop stop-color="#FF3705"/>
<stop offset="1" stop-color="#FF896B"/>
</linearGradient>
<radialGradient id="paint1_radial_83_3173" cx="0" cy="0" r="1" gradientUnits="userSpaceOnUse" gradientTransform="translate(4 8.5) rotate(48.0587) scale(46.3816 54.7952)">
<stop offset="0.539555" stop-color="white" stop-opacity="0"/>
<stop offset="1" stop-color="white"/>
</radialGradient>
</defs>
</svg>
